<svg xmlns="http://www.w3.org/2000/svg" width="16" height="11" viewBox="0 0 16 11">
    <defs>
        <filter id="g79zz24h5a">
            <feColorMatrix in="SourceGraphic" values="0 0 0 0 1.000000 0 0 0 0 1.000000 0 0 0 0 1.000000 0 0 0 1.000000 0"/>
        </filter>
    </defs>
    <g fill="none" fill-rule="evenodd">
        <g>
            <g>
                <g>
                    <g>
                        <g filter="url(#g79zz24h5a)" transform="translate(-549 -1234) translate(280 744) translate(0 58) translate(131 419) translate(138 13)">
                            <path fill="#000" fill-rule="nonzero" d="M15.782 4.974L11.021.218c-.29-.29-.762-.29-1.052 0-.29.29-.29.76 0 1.05l3.49 3.489H.745C.334 4.757 0 5.09 0 5.5s.333.743.744.743H13.46L9.969 9.731c-.29.29-.29.761 0 1.051.145.145.335.218.526.218.19 0 .38-.073.526-.218l4.761-4.756c.29-.29.29-.761 0-1.052z"/>
                        </g>
                    </g>
                </g>
            </g>
        </g>
    </g>
</svg>
