<svg xmlns="http://www.w3.org/2000/svg" width="32" height="32" viewBox="0 0 32 32">
    <defs>
        <filter id="7t5mjt4l6a">
            <feColorMatrix in="SourceGraphic" values="0 0 0 0 0.788235 0 0 0 0 0.047059 0 0 0 0 0.058824 0 0 0 1.000000 0"/>
        </filter>
    </defs>
    <g fill="none" fill-rule="evenodd">
        <g>
            <g>
                <g filter="url(#7t5mjt4l6a)" transform="translate(-1208 -649) translate(1208 128) translate(0 521)">
                    <path fill="#000" fill-rule="nonzero" d="M30.857 8h-5.714V1.143C25.143.512 24.63 0 24 0H1.143C.512 0 0 .512 0 1.143v26.286C0 29.953 2.047 32 4.571 32H27.43C29.953 32 32 29.953 32 27.429V9.143C32 8.512 31.488 8 30.857 8zM9.143 5.714H16c.631 0 1.143.512 1.143 1.143S16.63 8 16 8H9.143C8.512 8 8 7.488 8 6.857s.512-1.143 1.143-1.143zM19.429 27.43H5.714c-.63 0-1.143-.512-1.143-1.143 0-.632.512-1.143 1.143-1.143H19.43c.63 0 1.142.511 1.142 1.143 0 .63-.511 1.143-1.142 1.143zm0-4.572H5.714c-.63 0-1.143-.512-1.143-1.143s.512-1.143 1.143-1.143H19.43c.63 0 1.142.512 1.142 1.143s-.511 1.143-1.142 1.143zm0-4.571H5.714c-.63 0-1.143-.512-1.143-1.143S5.083 16 5.714 16H19.43c.63 0 1.142.512 1.142 1.143s-.511 1.143-1.142 1.143zm0-4.572H5.714c-.63 0-1.143-.511-1.143-1.143 0-.63.512-1.142 1.143-1.142H19.43c.63 0 1.142.511 1.142 1.142 0 .632-.511 1.143-1.142 1.143zM29.714 27.43c0 1.262-1.023 2.285-2.285 2.285-1.263 0-2.286-1.023-2.286-2.285V10.286h4.571v17.143z"/>
                </g>
            </g>
        </g>
    </g>
</svg>
