<svg xmlns="http://www.w3.org/2000/svg" width="15" height="8" viewBox="0 0 15 8">
    <defs>
        <filter id="obob35k05a">
            <feColorMatrix in="SourceGraphic" values="0 0 0 0 0.552941 0 0 0 0 0.600000 0 0 0 0 0.682353 0 0 0 1.000000 0"/>
        </filter>
    </defs>
    <g fill="none" fill-rule="evenodd">
        <g>
            <g>
                <g>
                    <g filter="url(#obob35k05a)" transform="translate(-564 -259) translate(280 128) translate(40 88) translate(244 43)">
                        <g fill-rule="nonzero">
                            <path fill="#FFC107" d="M14.439.102L7.496 7.196.553.102C.423-.026.217-.022.092.11c-.123.129-.123.334 0 .463l7.173 7.33c.128.13.334.13.462 0L14.9.572c.13-.128.134-.339.008-.471-.125-.133-.331-.136-.46-.008l-.009.008z"/>
                            <path fill="#000" d="M7.496 8c-.086 0-.17-.035-.23-.097L.091.573C-.034.441-.03.23.1.103c.126-.125.326-.125.453 0l6.943 7.093L14.44.102c.125-.133.332-.136.461-.008.13.127.134.338.008.47L14.9.574l-7.173 7.33c-.061.062-.144.097-.23.097z"/>
                        </g>
                    </g>
                </g>
            </g>
        </g>
    </g>
</svg>
