<svg xmlns="http://www.w3.org/2000/svg" width="28" height="24" viewBox="0 0 28 24">
    <defs>
        <filter id="yolv78py2a">
            <feColorMatrix in="SourceGraphic" values="0 0 0 0 0.788235 0 0 0 0 0.047059 0 0 0 0 0.058824 0 0 0 1.000000 0"/>
        </filter>
    </defs>
    <g fill="none" fill-rule="evenodd">
        <g>
            <g>
                <g>
                    <g fill="#000" fill-rule="nonzero" filter="url(#yolv78py2a)" transform="translate(-976 -1512) translate(280 1509) translate(696) translate(0 3)">
                        <path d="M14.668 19.994c-.824-.012-1.617-.309-2.248-.839l-4.152-3.662c-.653-.611-1.652-.66-2.362-.114L.002 19.727v2.823c-.042.757.536 1.405 1.293 1.448.039.002.078.003.117.001h20.912c.838 0 1.676-.61 1.676-1.45v-7.4l-7.504 4.35c-.552.331-1.185.503-1.828.495z"/>
                        <circle cx="14.5" cy="11.5" r="1.5"/>
                        <path d="M27.653 2.852c-.241-.318-.614-.517-1.02-.548L6.04.006c-.401-.033-.802.07-1.133.292-.294.246-.493.58-.567.948L4 4.092h18.06c1.723.038 3.115 1.366 3.175 3.029V20c0-.073.34-.146.49-.292.314-.237.495-.6.492-.985L27.993 3.91c.04-.383-.084-.764-.34-1.058z"/>
                        <path d="M22.324 6H1.41C.57 6 0 6.791 0 7.62v10.735l5.029-3.616c1.276-.936 3.042-.858 4.228.188l4.19 3.616c.633.53 1.535.606 2.248.189L24 13.948V7.62c-.058-.885-.78-1.583-1.676-1.62zM14 14c-1.657 0-3-1.343-3-3s1.343-3 3-3 3 1.343 3 3-1.343 3-3 3z"/>
                    </g>
                </g>
            </g>
        </g>
    </g>
</svg>
