<svg xmlns="http://www.w3.org/2000/svg" width="35" height="32" viewBox="0 0 35 32">
    <defs>
        <filter id="ikvgotoi1a">
            <feColorMatrix in="SourceGraphic" values="0 0 0 0 0.788235 0 0 0 0 0.047059 0 0 0 0 0.058824 0 0 0 1.000000 0"/>
        </filter>
    </defs>
    <g fill="none" fill-rule="evenodd">
        <g>
            <g>
                <g filter="url(#ikvgotoi1a)" transform="translate(-280 -746) translate(280 744) translate(0 2)">
                    <path fill="#000" fill-rule="nonzero" d="M35 10V5.903c0-1.723-1.38-3.125-3.076-3.125h-.41v3.82c0 .575-.46 1.04-1.026 1.04-.566 0-1.025-.465-1.025-1.04V1.041c0-.576-.46-1.042-1.026-1.042-.566 0-1.025.466-1.025 1.042v1.736h-6.836v3.82c0 .575-.459 1.04-1.025 1.04-.567 0-1.026-.465-1.026-1.04V1.041C18.525.466 18.066 0 17.5 0c-.566 0-1.025.466-1.025 1.042v1.736H9.639v3.82c0 .575-.46 1.04-1.026 1.04-.566 0-1.025-.465-1.025-1.04V1.041C7.588.466 7.128 0 6.562 0c-.566 0-1.025.466-1.025 1.042v1.736h-2.46C1.38 2.778 0 4.18 0 5.903V10h35zM0 12v16.875C0 30.598 1.38 32 3.076 32h28.848C33.62 32 35 30.598 35 28.875V12H0zm10.032 14H7.968C7.433 26 7 25.552 7 25s.433-1 .968-1h2.064c.535 0 .968.448.968 1s-.433 1-.968 1zm0-4H7.968C7.433 22 7 21.552 7 21s.433-1 .968-1h2.064c.535 0 .968.448.968 1s-.433 1-.968 1zm0-5H7.968C7.433 17 7 16.552 7 16s.433-1 .968-1h2.064c.535 0 .968.448.968 1s-.433 1-.968 1zm8 9h-2.064c-.535 0-.968-.448-.968-1s.433-1 .968-1h2.064c.535 0 .968.448.968 1s-.433 1-.968 1zm0-4h-2.064c-.535 0-.968-.448-.968-1s.433-1 .968-1h2.064c.535 0 .968.448.968 1s-.433 1-.968 1zm0-5h-2.064c-.535 0-.968-.448-.968-1s.433-1 .968-1h2.064c.535 0 .968.448.968 1s-.433 1-.968 1zm9 9h-2.064c-.535 0-.968-.448-.968-1s.433-1 .968-1h2.064c.535 0 .968.448.968 1s-.433 1-.968 1zm0-4h-2.064c-.535 0-.968-.448-.968-1s.433-1 .968-1h2.064c.535 0 .968.448.968 1s-.433 1-.968 1zm0-5h-2.064c-.535 0-.968-.448-.968-1s.433-1 .968-1h2.064c.535 0 .968.448.968 1s-.433 1-.968 1z"/>
                </g>
            </g>
        </g>
    </g>
</svg>
