<svg xmlns="http://www.w3.org/2000/svg" width="56" height="64" viewBox="0 0 56 64">
    <defs>
        <filter id="oj4ojdsvva">
            <feColorMatrix in="SourceGraphic" values="0 0 0 0 0.788235 0 0 0 0 0.047059 0 0 0 0 0.058824 0 0 0 1.000000 0"/>
        </filter>
    </defs>
    <g fill="none" fill-rule="evenodd">
        <g>
            <g>
                <g fill="#000" fill-rule="nonzero" filter="url(#oj4ojdsvva)" transform="translate(-345 -1363) translate(280 1329) translate(65 34)">
                    <path d="M27.5 0C16.323 0 7 9.03 7 20.558c0 4.386 1.314 8.297 3.836 11.961l15.095 23.62c.732 1.149 2.407 1.147 3.138 0l15.16-23.7C46.697 28.94 48 24.832 48 20.558 48 9.222 38.804 0 27.5 0zm0 30c-5.238 0-9.5-4.262-9.5-9.5s4.262-9.5 9.5-9.5 9.5 4.262 9.5 9.5-4.262 9.5-9.5 9.5z"/>
                    <path d="M42.593 43l-9.4 14.822c-2.433 3.826-7.967 3.814-10.388.004L13.39 43.004C5.106 44.936 0 48.474 0 52.704 0 60.04 14.427 64 28 64s28-3.959 28-11.297c0-4.232-5.114-7.772-13.407-9.703z"/>
                </g>
            </g>
        </g>
    </g>
</svg>
