<svg xmlns="http://www.w3.org/2000/svg" width="51" height="40" viewBox="0 0 51 40">
    <defs>
        <filter id="ykuul5ee1a">
            <feColorMatrix in="SourceGraphic" values="0 0 0 0 1.000000 0 0 0 0 1.000000 0 0 0 0 1.000000 0 0 0 1.000000 0"/>
        </filter>
    </defs>
    <g fill="none" fill-rule="evenodd">
        <g>
            <g>
                <g>
                    <g filter="url(#ykuul5ee1a)" transform="translate(-1059 -1634) translate(280 1509) translate(696) translate(83 125)">
                        <g fill="#000" fill-rule="nonzero">
                            <path d="M49.08 6.232c-1.013-1.063-2.413-1.69-4.005-1.69h-8.012v-.098c0-1.207-.482-2.367-1.303-3.14C34.94.484 33.83 0 32.624 0H18.146C16.89 0 15.78.483 14.96 1.304c-.82.822-1.303 1.933-1.303 3.14v.097H5.695c-1.593 0-2.992.628-4.006 1.69C.676 7.247 0 8.697 0 10.242V34.3c0 1.594.627 2.995 1.69 4.01C2.702 39.323 4.15 40 5.694 40h39.38c1.592 0 2.992-.628 4.005-1.69 1.014-1.015 1.69-2.465 1.69-4.01V10.242c0-1.595-.628-2.996-1.69-4.01zM48.26 34.3h-.049c0 .87-.337 1.642-.916 2.222-.58.58-1.352.918-2.22.918H5.695c-.869 0-1.641-.339-2.22-.918-.58-.58-.917-1.353-.917-2.222V10.242c0-.87.338-1.643.917-2.223.579-.58 1.351-.918 2.22-.918h9.314c.724 0 1.303-.58 1.303-1.304v-1.4c0-.532.193-1.015.53-1.354.338-.338.821-.53 1.352-.53h14.43c.53 0 1.013.192 1.35.53.339.339.532.822.532 1.353v1.401c0 .725.579 1.304 1.303 1.304h9.314c.869 0 1.64.339 2.22.918.579.58.917 1.353.917 2.223V34.3z"/>
                            <path d="M25.275 10.33c-3.28 0-6.272 1.35-8.395 3.473-2.17 2.171-3.473 5.114-3.473 8.395 0 3.28 1.35 6.272 3.473 8.394 2.171 2.171 5.114 3.474 8.395 3.474 3.28 0 6.272-1.35 8.394-3.474 2.171-2.17 3.474-5.114 3.474-8.394 0-3.28-1.351-6.272-3.474-8.395-2.122-2.122-5.114-3.473-8.394-3.473zm6.561 18.477c-1.689 1.64-4.004 2.702-6.561 2.702-2.557 0-4.873-1.061-6.562-2.702-1.688-1.688-2.701-4.004-2.701-6.561 0-2.557 1.061-4.873 2.701-6.561 1.689-1.689 4.005-2.702 6.562-2.702 2.557 0 4.872 1.061 6.561 2.702 1.689 1.688 2.702 4.004 2.702 6.561.048 2.557-1.013 4.873-2.702 6.561z"/>
                            <circle cx="42.637" cy="12.747" r="2.418"/>
                        </g>
                    </g>
                </g>
            </g>
        </g>
    </g>
</svg>
