<svg xmlns="http://www.w3.org/2000/svg" width="71" height="64" viewBox="0 0 71 64">
    <defs>
        <filter id="1g99dlsaja">
            <feColorMatrix in="SourceGraphic" values="0 0 0 0 0.788235 0 0 0 0 0.047059 0 0 0 0 0.058824 0 0 0 1.000000 0"/>
        </filter>
    </defs>
    <g fill="none" fill-rule="evenodd">
        <g>
            <g>
                <g>
                    <g filter="url(#1g99dlsaja)" transform="translate(-817 -1363) translate(280 1329) translate(464) translate(73 34)">
                        <g fill="#000" fill-rule="nonzero">
                            <path d="M16.654 6.194H6.194c-1.142 0-2.065.923-2.065 2.064s.923 2.065 2.065 2.065h10.46c1.14 0 2.064-.924 2.064-2.065s-.923-2.064-2.064-2.064zM16.654 22.71H6.194c-1.142 0-2.065.923-2.065 2.064s.923 2.065 2.065 2.065h10.46c1.14 0 2.064-.924 2.064-2.065 0-1.14-.923-2.064-2.064-2.064zM12.525 14.452H2.065C.923 14.452 0 15.375 0 16.516s.923 2.065 2.065 2.065h10.46c1.14 0 2.064-.924 2.064-2.065s-.923-2.064-2.064-2.064zM66.34 24.774H53.815v-8.258c0-3.626-4.436-5.535-7.05-2.918L30.251 30.113c-1.613 1.613-1.613 4.226 0 5.839l9.467 9.467-11.532 11.533c-1.613 1.613-1.613 4.225 0 5.838 1.613 1.613 4.226 1.613 5.839 0L48.476 48.34c1.613-1.613 1.613-4.226 0-5.839l-9.467-9.468 6.548-6.548v2.42c0 2.28 1.849 4.128 4.129 4.128H66.34c2.28 0 4.129-1.849 4.129-4.129 0-2.28-1.849-4.129-4.13-4.129zM38.557 3.79c-1.641-1.09-3.819-.874-5.21.517L21.992 15.66c-1.613 1.613-1.613 4.226 0 5.84 1.613 1.612 4.226 1.612 5.84-.001l8.96-8.962 3.02 2.175 4.033-4.034c.675-.674 1.47-1.198 2.341-1.607l-7.63-5.282z"/>
                            <path d="M27.331 38.871c-1.046-1.046-1.744-2.334-2.113-3.726L3.412 56.952c-1.613 1.613-1.613 4.225 0 5.838 1.613 1.613 4.226 1.613 5.839 0l21-21-2.92-2.919z"/>
                            <circle cx="55.88" cy="6.194" r="6.194"/>
                        </g>
                    </g>
                </g>
            </g>
        </g>
    </g>
</svg>
