<svg xmlns="http://www.w3.org/2000/svg" width="20" height="20" viewBox="0 0 20 20">
    <defs>
        <filter id="fbq52y40ka">
            <feColorMatrix in="SourceGraphic" values="0 0 0 0 0.788235 0 0 0 0 0.047059 0 0 0 0 0.058824 0 0 0 1.000000 0"/>
        </filter>
    </defs>
    <g fill="none" fill-rule="evenodd">
        <g>
            <g>
                <g filter="url(#fbq52y40ka)" transform="translate(-328 -749) translate(280 128) translate(48 621)">
                    <path fill="#000" fill-rule="nonzero" d="M10 0C4.478 0 0 4.477 0 10s4.477 10 10 10 10-4.477 10-10S15.523 0 10 0zm-.218 3.043c1.802 0 3.261 1.46 3.261 3.261 0 1.801-1.46 3.261-3.26 3.261-1.801 0-3.261-1.46-3.261-3.26 0-1.801 1.46-3.262 3.26-3.262zM10 17.391c-1.803 0-3.454-.655-4.728-1.739-.31-.264-.49-.65-.49-1.057 0-1.828 1.484-3.29 3.317-3.29h3.807c1.834 0 3.311 1.462 3.311 3.29 0 .407-.178.793-.488 1.057-1.274 1.084-2.926 1.74-4.729 1.74z"/>
                </g>
            </g>
        </g>
    </g>
</svg>
